<mxfile host="app.diagrams.net" modified="2024-04-06T14:22:05.506Z" agent="Mozilla/5.0 (Windows NT 10.0; Win64; x64) AppleWebKit/537.36 (KHTML, like Gecko) Chrome/121.0.0.0 Safari/537.36 OPR/107.0.0.0" etag="8Rjiv4sDNcpz7IL2Jc60" version="24.1.0" type="google">
  <diagram name="Page-1" id="VOUdxzzOjki-q6FI3RY1">
    <mxGraphModel grid="1" page="1" gridSize="10" guides="1" tooltips="1" connect="1" arrows="1" fold="1" pageScale="1" pageWidth="850" pageHeight="1100" math="0" shadow="0">
      <root>
        <mxCell id="0" />
        <mxCell id="1" parent="0" />
        <mxCell id="TCYlNePgY0FkJClHxCiX-1" value="&lt;u&gt;Member ID&lt;/u&gt;" style="rounded=0;whiteSpace=wrap;html=1;fillColor=#FF9999;" vertex="1" parent="1">
          <mxGeometry x="320" y="280" width="80" height="40" as="geometry" />
        </mxCell>
        <mxCell id="TCYlNePgY0FkJClHxCiX-2" value="First Name" style="rounded=0;whiteSpace=wrap;html=1;fillColor=#FFCCCC;" vertex="1" parent="1">
          <mxGeometry x="400" y="280" width="80" height="40" as="geometry" />
        </mxCell>
        <mxCell id="TCYlNePgY0FkJClHxCiX-3" value="Last Name" style="rounded=0;whiteSpace=wrap;html=1;fillColor=#FFCCCC;" vertex="1" parent="1">
          <mxGeometry x="480" y="280" width="80" height="40" as="geometry" />
        </mxCell>
        <mxCell id="TCYlNePgY0FkJClHxCiX-4" value="Email" style="rounded=0;whiteSpace=wrap;html=1;fillColor=#FFCCCC;" vertex="1" parent="1">
          <mxGeometry x="560" y="280" width="80" height="40" as="geometry" />
        </mxCell>
        <mxCell id="TCYlNePgY0FkJClHxCiX-5" value="Date of Birth" style="rounded=0;whiteSpace=wrap;html=1;fillColor=#FFCCCC;" vertex="1" parent="1">
          <mxGeometry x="640" y="280" width="80" height="40" as="geometry" />
        </mxCell>
        <mxCell id="TCYlNePgY0FkJClHxCiX-6" value="Members" style="text;html=1;align=center;verticalAlign=middle;resizable=0;points=[];autosize=1;strokeColor=none;fillColor=none;fontStyle=1;fontSize=18;" vertex="1" parent="1">
          <mxGeometry x="215" y="280" width="100" height="40" as="geometry" />
        </mxCell>
        <mxCell id="TCYlNePgY0FkJClHxCiX-78" style="edgeStyle=orthogonalEdgeStyle;rounded=0;orthogonalLoop=1;jettySize=auto;html=1;entryX=0.5;entryY=1;entryDx=0;entryDy=0;" edge="1" parent="1" source="TCYlNePgY0FkJClHxCiX-7" target="TCYlNePgY0FkJClHxCiX-1">
          <mxGeometry relative="1" as="geometry" />
        </mxCell>
        <mxCell id="TCYlNePgY0FkJClHxCiX-7" value="&lt;u&gt;Member ID&lt;/u&gt;" style="rounded=0;whiteSpace=wrap;html=1;fillColor=#FF9999;" vertex="1" parent="1">
          <mxGeometry x="320" y="360" width="80" height="40" as="geometry" />
        </mxCell>
        <mxCell id="TCYlNePgY0FkJClHxCiX-8" value="Bank Account ID" style="rounded=0;whiteSpace=wrap;html=1;fillColor=#FFCC99;fontStyle=4" vertex="1" parent="1">
          <mxGeometry x="400" y="360" width="80" height="40" as="geometry" />
        </mxCell>
        <mxCell id="TCYlNePgY0FkJClHxCiX-9" value="Amount" style="rounded=0;whiteSpace=wrap;html=1;fillColor=#FFE6CC;" vertex="1" parent="1">
          <mxGeometry x="480" y="360" width="80" height="40" as="geometry" />
        </mxCell>
        <mxCell id="TCYlNePgY0FkJClHxCiX-12" value="Bank Account" style="text;html=1;align=center;verticalAlign=middle;resizable=0;points=[];autosize=1;strokeColor=none;fillColor=none;fontStyle=1;fontSize=18;" vertex="1" parent="1">
          <mxGeometry x="190" y="360" width="130" height="40" as="geometry" />
        </mxCell>
        <mxCell id="TCYlNePgY0FkJClHxCiX-76" style="edgeStyle=orthogonalEdgeStyle;rounded=0;orthogonalLoop=1;jettySize=auto;html=1;entryX=0.5;entryY=1;entryDx=0;entryDy=0;" edge="1" parent="1" source="TCYlNePgY0FkJClHxCiX-13" target="TCYlNePgY0FkJClHxCiX-61">
          <mxGeometry relative="1" as="geometry" />
        </mxCell>
        <mxCell id="TCYlNePgY0FkJClHxCiX-13" value="&lt;u&gt;Member ID&lt;/u&gt;" style="rounded=0;whiteSpace=wrap;html=1;fillColor=#FF9999;" vertex="1" parent="1">
          <mxGeometry x="320" y="520" width="80" height="40" as="geometry" />
        </mxCell>
        <mxCell id="TCYlNePgY0FkJClHxCiX-14" value="Metric ID" style="rounded=0;whiteSpace=wrap;html=1;fillColor=#FFFF99;fontStyle=4" vertex="1" parent="1">
          <mxGeometry x="400" y="520" width="80" height="40" as="geometry" />
        </mxCell>
        <mxCell id="TCYlNePgY0FkJClHxCiX-15" value="Metric Type" style="rounded=0;whiteSpace=wrap;html=1;fillColor=#FFFFCC;" vertex="1" parent="1">
          <mxGeometry x="480" y="520" width="80" height="40" as="geometry" />
        </mxCell>
        <mxCell id="TCYlNePgY0FkJClHxCiX-16" value="Health Metrics" style="text;html=1;align=center;verticalAlign=middle;resizable=0;points=[];autosize=1;strokeColor=none;fillColor=none;fontStyle=1;fontSize=18;" vertex="1" parent="1">
          <mxGeometry x="185" y="520" width="140" height="40" as="geometry" />
        </mxCell>
        <mxCell id="TCYlNePgY0FkJClHxCiX-17" value="Value" style="rounded=0;whiteSpace=wrap;html=1;fillColor=#FFFFCC;" vertex="1" parent="1">
          <mxGeometry x="560" y="520" width="80" height="40" as="geometry" />
        </mxCell>
        <mxCell id="TCYlNePgY0FkJClHxCiX-18" value="Record Date" style="rounded=0;whiteSpace=wrap;html=1;fillColor=#FFFFCC;" vertex="1" parent="1">
          <mxGeometry x="640" y="520" width="80" height="40" as="geometry" />
        </mxCell>
        <mxCell id="TCYlNePgY0FkJClHxCiX-75" style="edgeStyle=orthogonalEdgeStyle;rounded=0;orthogonalLoop=1;jettySize=auto;html=1;entryX=0.5;entryY=1;entryDx=0;entryDy=0;" edge="1" parent="1" source="TCYlNePgY0FkJClHxCiX-19" target="TCYlNePgY0FkJClHxCiX-13">
          <mxGeometry relative="1" as="geometry" />
        </mxCell>
        <mxCell id="TCYlNePgY0FkJClHxCiX-19" value="&lt;u&gt;Member ID&lt;/u&gt;" style="rounded=0;whiteSpace=wrap;html=1;fillColor=#FF9999;" vertex="1" parent="1">
          <mxGeometry x="320" y="600" width="80" height="40" as="geometry" />
        </mxCell>
        <mxCell id="TCYlNePgY0FkJClHxCiX-20" value="Goal ID" style="rounded=0;whiteSpace=wrap;html=1;fillColor=#CCFF99;fontStyle=4" vertex="1" parent="1">
          <mxGeometry x="400" y="600" width="80" height="40" as="geometry" />
        </mxCell>
        <mxCell id="TCYlNePgY0FkJClHxCiX-21" value="Goal Type" style="rounded=0;whiteSpace=wrap;html=1;fillColor=#E6FFCC;" vertex="1" parent="1">
          <mxGeometry x="480" y="600" width="80" height="40" as="geometry" />
        </mxCell>
        <mxCell id="TCYlNePgY0FkJClHxCiX-22" value="Member Goals" style="text;html=1;align=center;verticalAlign=middle;resizable=0;points=[];autosize=1;strokeColor=none;fillColor=none;fontStyle=1;fontSize=18;" vertex="1" parent="1">
          <mxGeometry x="185" y="600" width="140" height="40" as="geometry" />
        </mxCell>
        <mxCell id="TCYlNePgY0FkJClHxCiX-23" value="Target Value" style="rounded=0;whiteSpace=wrap;html=1;fillColor=#E6FFCC;" vertex="1" parent="1">
          <mxGeometry x="560" y="600" width="80" height="40" as="geometry" />
        </mxCell>
        <mxCell id="TCYlNePgY0FkJClHxCiX-24" value="Start Date" style="rounded=0;whiteSpace=wrap;html=1;fillColor=#E6FFCC;" vertex="1" parent="1">
          <mxGeometry x="640" y="600" width="80" height="40" as="geometry" />
        </mxCell>
        <mxCell id="TCYlNePgY0FkJClHxCiX-25" value="End Date" style="rounded=0;whiteSpace=wrap;html=1;fillColor=#E6FFCC;" vertex="1" parent="1">
          <mxGeometry x="720" y="600" width="80" height="40" as="geometry" />
        </mxCell>
        <mxCell id="TCYlNePgY0FkJClHxCiX-26" value="&lt;u&gt;Trainer ID&lt;/u&gt;" style="rounded=0;whiteSpace=wrap;html=1;fillColor=#99FF99;" vertex="1" parent="1">
          <mxGeometry x="400" y="760" width="80" height="40" as="geometry" />
        </mxCell>
        <mxCell id="TCYlNePgY0FkJClHxCiX-27" value="First Name" style="rounded=0;whiteSpace=wrap;html=1;fillColor=#CCFFCC;" vertex="1" parent="1">
          <mxGeometry x="480" y="760" width="80" height="40" as="geometry" />
        </mxCell>
        <mxCell id="TCYlNePgY0FkJClHxCiX-28" value="Last Name" style="rounded=0;whiteSpace=wrap;html=1;fillColor=#CCFFCC;" vertex="1" parent="1">
          <mxGeometry x="560" y="760" width="80" height="40" as="geometry" />
        </mxCell>
        <mxCell id="TCYlNePgY0FkJClHxCiX-29" value="Specialization" style="rounded=0;whiteSpace=wrap;html=1;fillColor=#CCFFCC;" vertex="1" parent="1">
          <mxGeometry x="640" y="760" width="80" height="40" as="geometry" />
        </mxCell>
        <mxCell id="TCYlNePgY0FkJClHxCiX-30" value="Start Time" style="rounded=0;whiteSpace=wrap;html=1;fillColor=#CCFFCC;" vertex="1" parent="1">
          <mxGeometry x="720" y="760" width="80" height="40" as="geometry" />
        </mxCell>
        <mxCell id="TCYlNePgY0FkJClHxCiX-31" value="Trainers" style="text;html=1;align=center;verticalAlign=middle;resizable=0;points=[];autosize=1;strokeColor=none;fillColor=none;fontStyle=1;fontSize=18;" vertex="1" parent="1">
          <mxGeometry x="300" y="760" width="90" height="40" as="geometry" />
        </mxCell>
        <mxCell id="TCYlNePgY0FkJClHxCiX-32" value="End Time" style="rounded=0;whiteSpace=wrap;html=1;fillColor=#CCFFCC;" vertex="1" parent="1">
          <mxGeometry x="800" y="760" width="80" height="40" as="geometry" />
        </mxCell>
        <mxCell id="TCYlNePgY0FkJClHxCiX-79" style="edgeStyle=orthogonalEdgeStyle;rounded=0;orthogonalLoop=1;jettySize=auto;html=1;entryX=0.5;entryY=1;entryDx=0;entryDy=0;" edge="1" parent="1" source="TCYlNePgY0FkJClHxCiX-33" target="TCYlNePgY0FkJClHxCiX-19">
          <mxGeometry relative="1" as="geometry" />
        </mxCell>
        <mxCell id="TCYlNePgY0FkJClHxCiX-33" value="&lt;u&gt;Member ID&lt;/u&gt;" style="rounded=0;whiteSpace=wrap;html=1;fillColor=#FF9999;" vertex="1" parent="1">
          <mxGeometry x="320" y="680" width="80" height="40" as="geometry" />
        </mxCell>
        <mxCell id="TCYlNePgY0FkJClHxCiX-35" value="Session ID" style="rounded=0;whiteSpace=wrap;html=1;fillColor=#99FFCC;fontStyle=4" vertex="1" parent="1">
          <mxGeometry x="480" y="680" width="80" height="40" as="geometry" />
        </mxCell>
        <mxCell id="TCYlNePgY0FkJClHxCiX-36" value="Start Time" style="rounded=0;whiteSpace=wrap;html=1;fillColor=#CCFFE6;" vertex="1" parent="1">
          <mxGeometry x="560" y="680" width="80" height="40" as="geometry" />
        </mxCell>
        <mxCell id="TCYlNePgY0FkJClHxCiX-37" value="End Time" style="rounded=0;whiteSpace=wrap;html=1;fillColor=#CCFFE6;" vertex="1" parent="1">
          <mxGeometry x="640" y="680" width="80" height="40" as="geometry" />
        </mxCell>
        <mxCell id="TCYlNePgY0FkJClHxCiX-38" value="Training Sessions" style="text;html=1;align=center;verticalAlign=middle;resizable=0;points=[];autosize=1;strokeColor=none;fillColor=none;fontStyle=1;fontSize=18;" vertex="1" parent="1">
          <mxGeometry x="150" y="680" width="170" height="40" as="geometry" />
        </mxCell>
        <mxCell id="TCYlNePgY0FkJClHxCiX-80" style="edgeStyle=orthogonalEdgeStyle;rounded=0;orthogonalLoop=1;jettySize=auto;html=1;entryX=0.5;entryY=0;entryDx=0;entryDy=0;" edge="1" parent="1" source="TCYlNePgY0FkJClHxCiX-39" target="TCYlNePgY0FkJClHxCiX-26">
          <mxGeometry relative="1" as="geometry" />
        </mxCell>
        <mxCell id="TCYlNePgY0FkJClHxCiX-39" value="&lt;u&gt;Trainer ID&lt;/u&gt;" style="rounded=0;whiteSpace=wrap;html=1;fillColor=#99FF99;" vertex="1" parent="1">
          <mxGeometry x="400" y="680" width="80" height="40" as="geometry" />
        </mxCell>
        <mxCell id="TCYlNePgY0FkJClHxCiX-40" value="&lt;u&gt;Room ID&lt;/u&gt;" style="rounded=0;whiteSpace=wrap;html=1;fillColor=#99FFFF;" vertex="1" parent="1">
          <mxGeometry x="480" y="920" width="80" height="40" as="geometry" />
        </mxCell>
        <mxCell id="TCYlNePgY0FkJClHxCiX-41" value="Name" style="rounded=0;whiteSpace=wrap;html=1;fillColor=#CCFFFF;" vertex="1" parent="1">
          <mxGeometry x="560" y="920" width="80" height="40" as="geometry" />
        </mxCell>
        <mxCell id="TCYlNePgY0FkJClHxCiX-42" value="Capacity" style="rounded=0;whiteSpace=wrap;html=1;fillColor=#CCFFFF;" vertex="1" parent="1">
          <mxGeometry x="640" y="920" width="80" height="40" as="geometry" />
        </mxCell>
        <mxCell id="TCYlNePgY0FkJClHxCiX-45" value="Rooms" style="text;html=1;align=center;verticalAlign=middle;resizable=0;points=[];autosize=1;strokeColor=none;fillColor=none;fontStyle=1;fontSize=18;" vertex="1" parent="1">
          <mxGeometry x="400" y="920" width="80" height="40" as="geometry" />
        </mxCell>
        <mxCell id="TCYlNePgY0FkJClHxCiX-47" value="Class ID" style="rounded=0;whiteSpace=wrap;html=1;fillColor=#99CCFF;fontStyle=4" vertex="1" parent="1">
          <mxGeometry x="560" y="840" width="80" height="40" as="geometry" />
        </mxCell>
        <mxCell id="TCYlNePgY0FkJClHxCiX-48" value="Start Time" style="rounded=0;whiteSpace=wrap;html=1;fillColor=#CCE5FF;" vertex="1" parent="1">
          <mxGeometry x="720" y="840" width="80" height="40" as="geometry" />
        </mxCell>
        <mxCell id="TCYlNePgY0FkJClHxCiX-49" value="End Time" style="rounded=0;whiteSpace=wrap;html=1;fillColor=#CCE5FF;" vertex="1" parent="1">
          <mxGeometry x="800" y="840" width="80" height="40" as="geometry" />
        </mxCell>
        <mxCell id="TCYlNePgY0FkJClHxCiX-50" value="Group Classes" style="text;html=1;align=center;verticalAlign=middle;resizable=0;points=[];autosize=1;strokeColor=none;fillColor=none;fontStyle=1;fontSize=18;" vertex="1" parent="1">
          <mxGeometry x="245" y="840" width="140" height="40" as="geometry" />
        </mxCell>
        <mxCell id="TCYlNePgY0FkJClHxCiX-81" style="edgeStyle=orthogonalEdgeStyle;rounded=0;orthogonalLoop=1;jettySize=auto;html=1;entryX=0.5;entryY=1;entryDx=0;entryDy=0;" edge="1" parent="1" source="TCYlNePgY0FkJClHxCiX-51" target="TCYlNePgY0FkJClHxCiX-26">
          <mxGeometry relative="1" as="geometry" />
        </mxCell>
        <mxCell id="TCYlNePgY0FkJClHxCiX-51" value="&lt;u&gt;Trainer ID&lt;/u&gt;" style="rounded=0;whiteSpace=wrap;html=1;fillColor=#99FF99;" vertex="1" parent="1">
          <mxGeometry x="400" y="840" width="80" height="40" as="geometry" />
        </mxCell>
        <mxCell id="TCYlNePgY0FkJClHxCiX-82" style="edgeStyle=orthogonalEdgeStyle;rounded=0;orthogonalLoop=1;jettySize=auto;html=1;entryX=0.5;entryY=0;entryDx=0;entryDy=0;" edge="1" parent="1" source="TCYlNePgY0FkJClHxCiX-52" target="TCYlNePgY0FkJClHxCiX-40">
          <mxGeometry relative="1" as="geometry" />
        </mxCell>
        <mxCell id="TCYlNePgY0FkJClHxCiX-52" value="&lt;u&gt;Room ID&lt;/u&gt;" style="rounded=0;whiteSpace=wrap;html=1;fillColor=#99FFFF;" vertex="1" parent="1">
          <mxGeometry x="480" y="840" width="80" height="40" as="geometry" />
        </mxCell>
        <mxCell id="TCYlNePgY0FkJClHxCiX-53" value="Name" style="rounded=0;whiteSpace=wrap;html=1;fillColor=#CCE5FF;" vertex="1" parent="1">
          <mxGeometry x="640" y="840" width="80" height="40" as="geometry" />
        </mxCell>
        <mxCell id="TCYlNePgY0FkJClHxCiX-84" style="edgeStyle=orthogonalEdgeStyle;rounded=0;orthogonalLoop=1;jettySize=auto;html=1;entryX=0.5;entryY=1;entryDx=0;entryDy=0;" edge="1" parent="1" source="TCYlNePgY0FkJClHxCiX-54" target="TCYlNePgY0FkJClHxCiX-47">
          <mxGeometry relative="1" as="geometry" />
        </mxCell>
        <mxCell id="TCYlNePgY0FkJClHxCiX-54" value="Class ID" style="rounded=0;whiteSpace=wrap;html=1;fillColor=#99CCFF;fontStyle=4" vertex="1" parent="1">
          <mxGeometry x="560" y="1000" width="80" height="40" as="geometry" />
        </mxCell>
        <mxCell id="TCYlNePgY0FkJClHxCiX-57" value="Class Registrations" style="text;html=1;align=center;verticalAlign=middle;resizable=0;points=[];autosize=1;strokeColor=none;fillColor=none;fontStyle=1;fontSize=18;" vertex="1" parent="1">
          <mxGeometry x="365" y="1000" width="180" height="40" as="geometry" />
        </mxCell>
        <mxCell id="TCYlNePgY0FkJClHxCiX-60" value="Registration ID" style="rounded=0;whiteSpace=wrap;html=1;fillColor=#009999;fontStyle=4" vertex="1" parent="1">
          <mxGeometry x="640" y="1000" width="80" height="40" as="geometry" />
        </mxCell>
        <mxCell id="TCYlNePgY0FkJClHxCiX-85" style="edgeStyle=orthogonalEdgeStyle;rounded=0;orthogonalLoop=1;jettySize=auto;html=1;entryX=0.5;entryY=1;entryDx=0;entryDy=0;" edge="1" parent="1" source="TCYlNePgY0FkJClHxCiX-61" target="TCYlNePgY0FkJClHxCiX-7">
          <mxGeometry relative="1" as="geometry" />
        </mxCell>
        <mxCell id="TCYlNePgY0FkJClHxCiX-61" value="&lt;u&gt;Member ID&lt;/u&gt;" style="rounded=0;whiteSpace=wrap;html=1;fillColor=#FF9999;" vertex="1" parent="1">
          <mxGeometry x="320" y="440" width="80" height="40" as="geometry" />
        </mxCell>
        <mxCell id="TCYlNePgY0FkJClHxCiX-62" value="Bill ID" style="rounded=0;whiteSpace=wrap;html=1;fillColor=#9999FF;fontStyle=4" vertex="1" parent="1">
          <mxGeometry x="400" y="440" width="80" height="40" as="geometry" />
        </mxCell>
        <mxCell id="TCYlNePgY0FkJClHxCiX-63" value="Amount" style="rounded=0;whiteSpace=wrap;html=1;fillColor=#CCCCFF;" vertex="1" parent="1">
          <mxGeometry x="480" y="440" width="80" height="40" as="geometry" />
        </mxCell>
        <mxCell id="TCYlNePgY0FkJClHxCiX-64" value="Payment Status" style="rounded=0;whiteSpace=wrap;html=1;fillColor=#CCCCFF;" vertex="1" parent="1">
          <mxGeometry x="560" y="440" width="80" height="40" as="geometry" />
        </mxCell>
        <mxCell id="TCYlNePgY0FkJClHxCiX-66" value="Billing" style="text;html=1;align=center;verticalAlign=middle;resizable=0;points=[];autosize=1;strokeColor=none;fillColor=none;fontStyle=1;fontSize=18;" vertex="1" parent="1">
          <mxGeometry x="230" y="440" width="70" height="40" as="geometry" />
        </mxCell>
        <mxCell id="TCYlNePgY0FkJClHxCiX-67" value="&lt;u&gt;Equipment ID&lt;/u&gt;" style="rounded=0;whiteSpace=wrap;html=1;fillColor=#CC99FF;" vertex="1" parent="1">
          <mxGeometry x="155" y="50" width="80" height="40" as="geometry" />
        </mxCell>
        <mxCell id="TCYlNePgY0FkJClHxCiX-68" value="Name" style="rounded=0;whiteSpace=wrap;html=1;fillColor=#E5CCFF;" vertex="1" parent="1">
          <mxGeometry x="235" y="50" width="80" height="40" as="geometry" />
        </mxCell>
        <mxCell id="TCYlNePgY0FkJClHxCiX-69" value="Status" style="rounded=0;whiteSpace=wrap;html=1;fillColor=#E5CCFF;" vertex="1" parent="1">
          <mxGeometry x="315" y="50" width="80" height="40" as="geometry" />
        </mxCell>
        <mxCell id="TCYlNePgY0FkJClHxCiX-72" value="Equipment" style="text;html=1;align=center;verticalAlign=middle;resizable=0;points=[];autosize=1;strokeColor=none;fillColor=none;fontStyle=1;fontSize=18;" vertex="1" parent="1">
          <mxGeometry x="45" y="50" width="110" height="40" as="geometry" />
        </mxCell>
      </root>
    </mxGraphModel>
  </diagram>
</mxfile>
